<svg width="48" height="48" version="1.1" viewBox="0 0 12.7 12.7" xmlns="http://www.w3.org/2000/svg" xmlns:cc="http://creativecommons.org/ns#" xmlns:dc="http://purl.org/dc/elements/1.1/" xmlns:rdf="http://www.w3.org/1999/02/22-rdf-syntax-ns#">
 <g transform="translate(-83.263 -100.93)">
  <path d="m89.613 112.32c-1.556 0-2.9492-0.70907-3.8742-1.8208h4.4887v-2.7039h-1.2608v1.4429h-0.92718v-5.1755h-2.3007c0.92522-1.1117 2.3183-1.8208 3.8742-1.8208 1.556 0 2.949 0.70907 3.8742 1.8208h-4.5205v2.7039h1.2608v-1.4429h0.92718v5.1755h2.3325c-0.92505 1.1117-2.3183 1.8208-3.8742 1.8208m-2.8343-3.0818h-1.809c-0.25482-0.60189-0.39575-1.2636-0.39575-1.9573s0.14093-1.3554 0.39575-1.9573h1.809zm7.4776 0h-1.8408v-3.9145h1.8408c0.25482 0.60189 0.39574 1.2636 0.39574 1.9573s-0.14092 1.3554-0.39574 1.9573m-4.6433-8.3073c-3.5014 0-6.35 2.8486-6.35 6.35s2.8486 6.35 6.35 6.35c3.5014 0 6.35-2.8486 6.35-6.35s-2.8486-6.35-6.35-6.35" fill="#abd138"/>
 </g>
</svg>
