<?xml version="1.0" standalone="no"?><svg xmlns="http://www.w3.org/2000/svg" viewBox="0 0 1440 320"><path fill="#abd138" fill-opacity="1" d="M0,0L40,37.3C80,75,160,149,240,165.3C320,181,400,139,480,122.7C560,107,640,117,720,149.3C800,181,880,235,960,250.7C1040,267,1120,245,1200,245.3C1280,245,1360,267,1400,277.3L1440,288L1440,320L1400,320C1360,320,1280,320,1200,320C1120,320,1040,320,960,320C880,320,800,320,720,320C640,320,560,320,480,320C400,320,320,320,240,320C160,320,80,320,40,320L0,320Z"></path></svg>